<svg width="300" height="102" viewBox="0 0 300 102" fill="none" xmlns="http://www.w3.org/2000/svg">
<rect width="300" height="102" fill="white"/>
<path d="M39.4615 74.1977H51.0363Z" fill="black"/>
<path d="M39.4615 74.1977H51.0363" stroke="#1F3E72" stroke-opacity="0.2" stroke-width="2.8023" stroke-linecap="round"/>
<path d="M57.7374 74.1977H69.3121Z" fill="black"/>
<path d="M57.7374 74.1977H69.3121" stroke="#1F3E72" stroke-opacity="0.2" stroke-width="2.8023" stroke-linecap="round"/>
<path d="M76.0133 74.1977H87.588Z" fill="black"/>
<path d="M76.0133 74.1977H87.588" stroke="#1F3E72" stroke-opacity="0.2" stroke-width="2.8023" stroke-linecap="round"/>
<path d="M94.2892 74.1977H105.864Z" fill="black"/>
<path d="M94.2892 74.1977H105.864" stroke="#1F3E72" stroke-opacity="0.2" stroke-width="2.8023" stroke-linecap="round"/>
<path d="M112.565 74.1977H124.14Z" fill="black"/>
<path d="M112.565 74.1977H124.14" stroke="#1F3E72" stroke-opacity="0.2" stroke-width="2.8023" stroke-linecap="round"/>
<path d="M130.841 74.1977H142.416Z" fill="black"/>
<path d="M130.841 74.1977H142.416" stroke="#1F3E72" stroke-opacity="0.2" stroke-width="2.8023" stroke-linecap="round"/>
<path d="M149.117 74.1977H160.691Z" fill="black"/>
<path d="M149.117 74.1977H160.691" stroke="#1F3E72" stroke-opacity="0.25" stroke-width="2.8023" stroke-linecap="round"/>
<path d="M167.393 74.1977H178.967Z" fill="black"/>
<path d="M167.393 74.1977H178.967" stroke="#1F3E72" stroke-opacity="0.3" stroke-width="2.8023" stroke-linecap="round"/>
<path d="M185.668 74.1977H197.243Z" fill="black"/>
<path d="M185.668 74.1977H197.243" stroke="#1F3E72" stroke-opacity="0.35" stroke-width="2.8023" stroke-linecap="round"/>
<path d="M203.944 74.1977H215.519Z" fill="black"/>
<path d="M203.944 74.1977H215.519" stroke="#1F3E72" stroke-opacity="0.4" stroke-width="2.8023" stroke-linecap="round"/>
<path d="M222.22 74.1977H233.795Z" fill="black"/>
<path d="M222.22 74.1977H233.795" stroke="#1F3E72" stroke-opacity="0.45" stroke-width="2.8023" stroke-linecap="round"/>
<path d="M240.496 74.1977H252.071Z" fill="black"/>
<path d="M240.496 74.1977H252.071" stroke="#1F3E72" stroke-opacity="0.5" stroke-width="2.8023" stroke-linecap="round"/>
<path d="M139.491 25.4621V40.3874C138.365 38.6767 136.826 37.2775 135.016 36.3192C133.205 35.3609 131.183 34.8744 129.135 34.9046C125.358 34.9046 122.19 36.2448 119.51 38.9253C118.245 40.1968 117.248 41.7093 116.578 43.3731C115.909 45.0369 115.58 46.8182 115.611 48.6115C115.611 52.5103 116.951 55.7391 119.571 58.4195C122.129 61.1609 125.358 62.5011 129.013 62.5011C131.145 62.5011 133.095 62.0138 134.861 61.2218C136.567 60.308 138.151 59.0287 139.552 57.323V61.831H142.903V25.4621H139.491ZM51.158 34.6C49.3305 34.6 47.5029 35.0874 45.7971 36.123C44.3586 37.1042 43.1356 38.3687 42.2029 39.8391V35.2701H38.8523V61.831H42.2029V50.5609C42.2029 47.2103 42.5684 44.7736 43.1776 43.1287C43.7791 41.5869 44.8163 40.2534 46.1626 39.2908C47.5029 38.377 48.9649 37.8897 50.4879 37.8897C51.8282 37.8897 52.9856 38.2552 54.0213 38.9253C54.9817 39.5997 55.7061 40.5586 56.0925 41.6667C56.458 42.8851 56.6408 45.0172 56.6408 48.246V61.831H59.9914V51.4747C59.9914 47.6368 60.296 44.8954 60.9052 43.2506C61.5144 41.6667 62.55 40.3264 63.8902 39.3517C65.2305 38.377 66.6925 37.8897 68.3374 37.8897C69.6776 37.8897 70.7741 38.1943 71.7488 38.8644C72.7236 39.4736 73.3937 40.3874 73.8201 41.423C74.2465 42.5195 74.4293 44.469 74.4293 47.3322V61.831H77.8408V47.3931C77.8408 44.1034 77.5362 41.5448 76.8661 39.9C76.2596 38.3037 75.1713 36.9358 73.7522 35.9861C72.333 35.0364 70.6535 34.5519 68.9465 34.6C67.058 34.6 65.2914 35.2092 63.5856 36.2448C61.9408 37.3414 60.5397 38.9253 59.3822 40.9965C58.8948 39.4736 58.2247 38.2552 57.5546 37.4023C56.7942 36.5183 55.8334 35.829 54.7523 35.392C53.5948 34.8437 52.4374 34.6 51.0971 34.6H51.158ZM97.0305 34.6C93.0707 34.6 89.781 36.0621 87.2833 39.0471C84.902 41.66 83.5963 45.0764 83.6282 48.6115C83.6282 52.2667 84.8465 55.5563 87.4052 58.3586C89.8419 61.1 93.0707 62.5011 96.9695 62.5011C98.7757 62.5536 100.571 62.2036 102.225 61.4766C103.879 60.7496 105.351 59.6637 106.534 58.2977C108.966 55.6634 110.296 52.1968 110.25 48.6115C110.25 44.9563 109.093 41.7276 106.717 38.9862C105.524 37.5682 104.03 36.4335 102.344 35.6643C100.658 34.8951 98.8224 34.5108 96.9695 34.5391L97.0305 34.6ZM162.519 34.6C158.255 34.6 154.843 36.2448 152.224 39.5954C150.213 42.2149 149.239 45.2 149.239 48.6115C149.239 52.2057 150.457 55.3736 152.833 58.2368C154.042 59.6551 155.561 60.777 157.271 61.5163C158.982 62.2556 160.84 62.5925 162.702 62.5011C166.09 62.5498 169.365 61.2834 171.84 58.9678C173.058 57.8713 174.155 56.3483 175.007 54.5207L172.266 52.9977C171.23 54.7644 170.317 56.0437 169.403 56.7747C167.449 58.4385 164.963 59.3463 162.397 59.3333C159.717 59.3333 157.402 58.3586 155.574 56.4092C153.686 54.3988 152.711 51.9011 152.65 48.7943H175.921C175.921 45.1391 174.947 42.0931 173.058 39.6563C171.836 38.0293 170.241 36.7204 168.406 35.8403C166.572 34.9602 164.553 34.5348 162.519 34.6V34.6ZM191.029 34.6C189.75 34.6 188.532 34.9655 187.374 35.6965C186.015 36.6128 184.855 37.7938 183.963 39.169V35.2092H180.429V61.7701H183.963V52.8759C183.963 48.246 184.206 45.1391 184.633 43.677C185.242 41.6667 186.034 40.2046 187.07 39.2908C187.986 38.4057 189.207 37.9045 190.481 37.8897C190.907 37.8897 191.517 38.0115 192.309 38.377L194.136 35.4529C192.979 34.8437 192.004 34.5391 191.029 34.5391V34.6ZM211.133 34.6C209.183 34.6 207.417 35.0264 205.772 35.9402C204.011 36.9615 202.493 38.3544 201.325 40.0218V35.2092H197.974V61.7701H201.325V52.023C201.325 48.5506 201.507 46.1138 201.812 44.7736C202.299 42.7632 203.396 41.1184 204.98 39.7172C206.625 38.3161 208.452 37.646 210.463 37.646C212.29 37.646 213.691 38.1333 214.727 38.9862C215.918 40.0023 216.715 41.4033 216.981 42.946C217.286 43.9816 217.407 45.992 217.407 49.0988V61.7701H220.758V48.1851C220.758 44.5299 220.393 41.8494 219.661 40.1437C218.93 38.4379 217.834 37.0977 216.311 36.0621C214.778 35.0446 212.973 34.5138 211.133 34.5391V34.6ZM239.765 34.6C236.171 34.6 233.064 35.9402 230.505 38.6207C229.242 39.9187 228.248 41.4532 227.579 43.1363C226.91 44.8193 226.579 46.6178 226.606 48.4287C226.529 52.1147 227.908 55.6825 230.444 58.3586C231.705 59.7433 233.259 60.8284 234.994 61.5342C236.728 62.24 238.599 62.5488 240.468 62.4378C242.337 62.3268 244.158 61.7989 245.797 60.8928C247.435 59.9867 248.851 58.7253 249.939 57.2011V61.831H253.228V35.2092H249.999V40.0828C248.862 38.3351 247.314 36.8921 245.491 35.8793C243.76 34.9883 241.833 34.5483 239.887 34.6H239.765ZM162.519 37.8287C164.103 37.8287 165.565 38.1943 166.905 38.8644C168.367 39.4736 169.464 40.3874 170.317 41.4839C171.109 42.5805 171.779 43.9816 172.266 45.8092H152.955C153.686 43.3724 154.66 41.5448 156.001 40.3264C157.828 38.6816 160.021 37.8897 162.519 37.8897V37.8287ZM240.07 37.8287C242.933 37.8287 245.309 38.8644 247.319 40.9356C249.207 43.0069 250.182 45.5655 250.182 48.6724C250.182 50.6828 249.756 52.5103 248.964 54.0943C248.088 55.6725 246.809 56.9896 245.257 57.9102C243.704 58.8309 241.935 59.3221 240.13 59.3333C238.303 59.3333 236.597 58.846 235.013 57.9322C232.681 56.3836 231.009 54.0225 230.322 51.3086C229.635 48.5946 229.982 45.7222 231.297 43.2506C232.126 41.6372 233.383 40.2833 234.93 39.3376C236.478 38.3919 238.256 37.8909 240.07 37.8897V37.8287ZM96.9086 37.9506C99.65 37.9506 102.026 38.9862 103.975 41.0575C105.557 42.7851 106.564 44.9604 106.859 47.2841C107.154 49.6078 106.721 51.9657 105.62 54.0333C104.806 55.6232 103.566 56.9553 102.038 57.8806C100.511 58.8058 98.7556 59.2877 96.9695 59.2724C95.1835 59.2877 93.4285 58.8058 91.9007 57.8806C90.373 56.9553 89.1328 55.6232 88.319 54.0333C87.4367 52.3843 86.9762 50.5426 86.9787 48.6724C86.9787 45.6874 87.9534 43.1897 89.9029 41.0575C91.8523 38.9862 94.1672 37.9506 96.9695 37.9506H96.9086ZM129.318 38.1333C130.704 38.1327 132.076 38.4104 133.353 38.9498C134.629 39.4892 135.785 40.2793 136.751 41.2735C137.716 42.2677 138.473 43.4456 138.975 44.7375C139.477 46.0293 139.715 47.4088 139.674 48.7943C139.703 50.6869 139.241 52.5548 138.334 54.2161C137.384 55.7779 136.052 57.0725 134.465 57.9783C132.877 58.8841 131.085 59.3713 129.257 59.3943C127.423 59.3735 125.628 58.8663 124.055 57.9244C122.481 56.9825 121.186 55.6397 120.302 54.0333C119.395 52.4142 118.918 50.5893 118.918 48.7333C118.918 46.8774 119.395 45.0525 120.302 43.4333C121.184 41.8165 122.489 40.4695 124.077 39.5361C125.664 38.6027 127.476 38.1178 129.318 38.1333V38.1333ZM258.163 37.3414H258.65C258.894 37.3414 259.076 37.3414 259.137 37.2195C259.259 37.2195 259.32 37.0977 259.32 36.9759L259.198 36.7931C259.198 36.6713 259.198 36.6713 259.076 36.6103H258.163V37.3414ZM257.797 38.7425V36.3057H259.259C259.442 36.3667 259.564 36.4885 259.625 36.6103L259.747 36.9149C259.747 37.1586 259.625 37.2805 259.564 37.4023C259.387 37.5377 259.176 37.622 258.955 37.646L259.198 37.7678L259.564 38.2552L259.868 38.7425H259.381L259.198 38.3161L258.772 37.7069H258.224V38.7425H257.797ZM258.772 35.5138C258.467 35.5138 258.163 35.5747 257.858 35.8184C257.553 35.9402 257.31 36.1839 257.188 36.4885C257.004 36.7803 256.906 37.1182 256.906 37.4632C256.906 37.8082 257.004 38.1461 257.188 38.4379C257.31 38.7425 257.553 38.9862 257.858 39.108C258.163 39.3517 258.467 39.4126 258.772 39.4126C259.137 39.4126 259.442 39.3517 259.747 39.108C260.051 38.9862 260.356 38.7425 260.478 38.4379C260.599 38.1333 260.721 37.8287 260.721 37.4632C260.721 37.1586 260.599 36.854 260.478 36.4885C260.3 36.202 260.047 35.9701 259.747 35.8184C259.442 35.5747 259.137 35.5138 258.772 35.5138V35.5138ZM258.772 35.2092C259.198 35.2092 259.564 35.2701 259.929 35.4529C260.295 35.6356 260.538 35.9402 260.782 36.3057C261.026 36.6713 261.087 37.0368 261.087 37.5241C261.087 37.8897 261.026 38.2552 260.782 38.6207C260.599 38.9862 260.295 39.2299 259.929 39.4736C259.575 39.6697 259.177 39.7744 258.772 39.7782C258.406 39.7782 258.041 39.6563 257.675 39.4736C257.31 39.2908 257.066 38.9862 256.822 38.6207C256.64 38.2552 256.518 37.8897 256.518 37.4632C256.518 37.0368 256.64 36.6713 256.822 36.3057C257.066 35.9402 257.31 35.6965 257.675 35.4529C258.041 35.2701 258.467 35.2092 258.772 35.2092V35.2092Z" fill="#1F3E72" fill-opacity="0.3"/>
</svg>
