<svg width="300" height="102" viewBox="0 0 300 102" fill="none" xmlns="http://www.w3.org/2000/svg">
<rect width="300" height="102" fill="white"/>
<g clip-path="url(#clip0_142_2)">
<path fill-rule="evenodd" clip-rule="evenodd" d="M23.6449 70.8748L28.1164 58.7611L32.344 70.8748H23.6449ZM36.68 83.0969H40.7721L30.1489 53.9373H26.111L15 83.0969H19.1192L22.3712 74.1539H33.4822L36.68 83.0969ZM49.6879 73.0157C45.8939 72.2027 41.9916 71.3084 41.9916 66.7285C41.9916 62.7177 45.3791 60.1703 50.528 60.1703C53.8342 60.1703 57.0049 61.4169 58.6038 64.425L55.1621 65.8613C54.8911 65.0483 53.1025 63.0158 50.1215 63.0158C47.1947 63.0158 45.7313 64.7502 45.7313 66.2407C45.7313 68.3545 48.4955 69.2217 50.8803 69.6824C55.7854 70.658 60.0401 71.9317 60.0401 76.5387C60.0401 80.143 56.8423 83.5034 50.7448 83.5034C46.2462 83.5034 43.0756 82.0129 41.5309 78.8693L45.4604 78.1918C46.4359 79.8991 48.2245 80.6579 50.9074 80.6579C54.2136 80.6579 56.1377 79.4113 56.1377 77.0265C56.1106 74.5333 52.9399 73.7203 49.6879 73.0157ZM68.1701 60.8478H72.208V63.9372H68.1701V76.5658C68.1701 79.1945 68.1701 80.3056 69.769 80.3056C70.4736 80.3056 71.4492 80.0346 72.208 79.7907V82.853C71.5576 82.9343 70.0129 83.2324 68.6037 83.2324C64.2948 83.2324 64.2948 81.1457 64.349 78.246V63.9372H60.826V60.8478H64.349V55.5362L68.1972 53.9373V60.8478H68.1701ZM79.2811 60.902V64.8857C81.3949 60.6852 85.3786 60.6039 86.8691 60.5497V64.3979C83.2106 64.425 81.422 65.1838 80.2296 67.135C79.2269 68.7339 79.2811 70.9832 79.2811 72.9073V83.0969H75.5684V60.902H79.2811ZM129.904 53.9373V57.5687L113.4 79.601H130.337V83.0969H108.901V79.3029L125.487 57.5145H108.901V53.9102L129.904 53.9373ZM157.383 61.0646V64.2895C159.443 60.6581 162.993 60.3329 164.294 60.3329C167.112 60.3329 170.5 61.7421 171.584 65.4006C171.963 66.7014 171.963 68.0564 171.963 69.9534V83.0969H168.25V70.5496C168.25 68.3003 168.25 67.6499 168.006 66.8911C167.356 64.7773 165.269 63.8559 163.264 63.8559C161.611 63.8559 160.202 64.3708 159.036 65.5361C157.383 67.1621 157.383 68.8694 157.383 70.4954V83.0698H153.67V61.0375H157.383V61.0646ZM214.754 79.1674C213.372 81.3354 210.851 83.5576 206.299 83.5576C198.467 83.5576 195.486 77.5143 195.486 72.0943C195.486 65.8342 198.9 60.1432 205.946 60.1432C208.71 60.1432 212.586 60.9833 214.754 64.5605L211.258 66.0239C210.607 64.5605 209.171 62.8803 206.082 62.8803C199.957 62.8803 199.605 69.845 199.605 71.8233C199.605 79.1403 203.805 80.7121 206.326 80.7121C209.198 80.7121 210.662 79.33 211.448 77.8124L214.754 79.1674ZM135.676 69.7366H147.437C147.112 63.9372 143.752 62.9616 141.53 62.9616C138.332 62.9616 136.083 65.2922 135.676 69.7366ZM150.5 78.8964C149.226 81.0644 146.787 83.5305 141.963 83.5305C135.405 83.5305 131.638 79.0861 131.638 71.6336C131.638 63.3139 137.139 60.1161 141.801 60.1161C145.866 60.1161 149.768 62.3654 151.069 67.9209C151.502 69.7908 151.502 71.471 151.502 72.4195H135.568C135.486 76.1322 137.031 80.8205 142.261 80.7121C144.402 80.685 145.893 79.7094 146.868 78.1918L150.5 78.8964ZM177.979 69.7366H189.741C189.415 63.9372 186.082 62.9616 183.833 62.9616C180.662 62.9616 178.413 65.2922 177.979 69.7366ZM192.803 78.8964C191.529 81.0644 189.09 83.5305 184.266 83.5305C177.708 83.5305 173.941 79.0861 173.941 71.6336C173.941 63.3139 179.443 60.1161 184.104 60.1161C188.169 60.1161 192.071 62.3654 193.372 67.9209C193.806 69.7908 193.805 71.471 193.805 72.4195H177.871C177.789 76.1322 179.334 80.8205 184.564 80.7121C186.705 80.685 188.223 79.7094 189.171 78.1918L192.803 78.8964ZM235.106 83.124L231.231 83.1511C231.231 83.1511 230.905 81.5793 230.797 79.872C229.686 81.0373 227.599 83.4492 223.372 83.4492C219.063 83.4492 215.865 80.9018 215.865 77.1349C215.865 75.9696 216.19 74.8043 216.84 73.8016C218.114 71.9317 220.472 70.4141 227.057 69.8992L230.58 69.6282V69.0591C230.58 66.7556 230.58 62.9074 225.621 62.9074C222.504 62.9074 221.447 64.425 221.095 65.78L217.681 64.3437C217.735 64.2082 217.789 64.0998 217.87 63.9914C219.198 61.5524 221.773 60.0619 225.512 60.0619C227.572 60.0619 230.228 60.5768 231.962 61.9318C234.428 63.8017 234.374 67.4873 234.374 67.4873L234.537 78.8693C234.51 78.8964 234.618 82.2026 235.106 83.124ZM230.011 76.9994C230.58 75.7799 230.634 75.265 230.634 72.0401C229.198 72.284 227.22 72.555 224.835 73.0699C220.716 73.9642 220.011 75.5089 220.011 77.0536C220.011 78.8422 221.42 80.3327 224.185 80.3327C226.732 80.3327 228.927 79.3029 230.011 76.9994ZM106.273 83.124L102.397 83.1511C102.397 83.1511 102.072 81.5793 101.964 79.872C100.853 81.0373 98.766 83.4492 94.5384 83.4492C90.2295 83.4492 87.0317 80.9018 87.0317 77.1349C87.0317 75.9696 87.3569 74.8043 88.0073 73.8016C89.281 71.9317 91.6387 70.4141 98.224 69.8992L101.747 69.6282V69.0591C101.747 66.7556 101.747 62.9074 96.7877 62.9074C93.6712 62.9074 92.6143 64.425 92.262 65.78L88.8474 64.3437C88.9016 64.2353 88.9558 64.0998 89.0371 63.9914C90.365 61.5524 92.9395 60.0619 96.6793 60.0619C98.7389 60.0619 101.395 60.5768 103.129 61.9318C105.595 63.8017 105.541 67.4873 105.541 67.4873L105.704 78.8693C105.649 78.8964 105.785 82.2026 106.273 83.124ZM101.178 76.9994C101.747 75.7799 101.774 75.265 101.774 72.0401C100.338 72.284 98.3595 72.555 95.9747 73.0699C91.8555 73.9642 91.1509 75.5089 91.1509 77.0536C91.1509 78.8422 92.5601 80.3327 95.3243 80.3327C97.8988 80.3327 100.094 79.3029 101.178 76.9994Z" fill="#1F3E72" fill-opacity="0.2"/>
<path fill-rule="evenodd" clip-rule="evenodd" d="M285.973 52.3926C285.973 52.2571 285.946 52.1216 285.919 51.9861C285.865 51.7151 285.784 51.4441 285.675 51.2002C285.567 50.9292 285.431 50.6582 285.269 50.4143C285.106 50.1433 284.916 49.8723 284.727 49.6013C284.618 49.4387 284.483 49.3032 284.347 49.1677C284.212 49.0051 284.049 48.8696 283.887 48.7341C283.507 48.436 283.128 48.1379 282.721 47.8669C281.827 47.3249 280.906 46.7287 279.957 46.2951C278.792 45.7802 277.654 45.1569 276.434 44.7504L268.277 41.932C268.277 40.3873 268.331 38.8426 268.277 37.2708C268.223 34.9673 268.115 32.6638 267.925 30.3874C267.789 28.7885 267.6 27.1896 267.356 25.6178C267.166 24.3712 266.868 23.1788 266.597 21.9593C266.543 21.6883 266.434 21.4173 266.353 21.1463C266.19 20.6856 266.001 20.2249 265.784 19.7913C265.594 19.439 265.377 19.0867 265.134 18.7615C264.835 18.3821 264.51 18.0569 264.131 17.7588C263.914 17.5962 263.697 17.4878 263.48 17.3794C263.291 17.2981 263.074 17.2168 262.884 17.1626C262.586 17.0813 262.288 17.0542 261.963 17.0271C261.231 17 260.527 17.0813 259.849 17.3252C259.578 17.4065 259.334 17.5149 259.09 17.6504C258.521 17.9485 258.006 18.2737 257.491 18.6531C257.031 19.0054 256.57 19.3306 256.163 19.71C254.456 21.3089 252.803 22.9349 251.15 24.6151C250.283 25.5094 249.443 26.4308 248.657 27.3793C245.513 31.1733 242.397 34.9944 239.361 38.8968C238.034 40.6312 236.814 42.4469 235.567 44.2626C235.269 44.7233 234.971 45.184 234.7 45.6447C234.24 46.4848 233.806 47.3249 233.372 48.1921C233.264 48.4089 233.183 48.6528 233.101 48.8696C233.02 49.0864 232.939 49.3303 232.885 49.5471C232.776 49.9536 232.722 50.3872 232.749 50.8208C232.749 50.9292 232.776 51.0376 232.83 51.1189C232.857 51.2273 232.912 51.3357 232.966 51.417C233.101 51.6338 233.264 51.8235 233.427 52.0132C233.616 52.2029 233.833 52.3926 234.05 52.5823C234.267 52.772 234.511 52.9346 234.754 53.0972C235.188 53.3682 235.622 53.6392 236.055 53.8831C236.245 53.9915 236.435 54.0999 236.651 54.1812C236.733 54.2083 236.516 54.0999 236.435 54.0728C236.435 54.0728 236.408 54.0457 236.408 54.0728C236.408 54.0728 236.435 54.0728 236.435 54.0999L236.76 54.2625C239.443 55.6717 242.126 57.0539 244.809 58.4631C247.491 59.8994 250.174 61.3357 252.83 62.8262L258.792 66.1866C256.733 67.7584 254.619 69.276 252.586 70.8749C251.8 71.4982 251.096 72.1757 250.391 72.8803C249.822 73.4494 249.28 74.0456 248.765 74.6689C248.359 75.1567 247.979 75.6987 247.654 76.2407C247.383 76.6743 247.139 77.1079 246.922 77.5686C246.76 77.9209 246.624 78.2732 246.516 78.6255C246.435 78.8694 246.38 79.1404 246.326 79.4114C246.299 79.574 246.299 79.7366 246.272 79.8992V80.4954C246.299 81.0103 246.435 81.4981 246.678 81.9588C246.733 82.0672 246.787 82.1756 246.868 82.2569C247.004 82.4466 247.139 82.6363 247.302 82.7989C247.464 82.9615 247.654 83.1241 247.844 83.2596C248.033 83.3951 248.223 83.5306 248.44 83.639C248.657 83.7474 248.874 83.8558 249.09 83.9371C249.307 84.0184 249.524 84.1268 249.768 84.181C250.608 84.3707 251.448 84.5333 252.288 84.6417C252.695 84.6959 253.128 84.723 253.535 84.6959C254.971 84.5875 256.407 84.4249 257.844 84.2081C259.524 83.9371 261.177 83.5848 262.803 83.2325C264.754 82.7989 266.678 82.3653 268.602 81.8504C269.957 81.4981 271.339 81.1729 272.64 80.6309C273.67 80.2244 274.7 79.8179 275.73 79.3843C275.946 79.2759 276.163 79.1675 276.38 79.032C276.57 78.9236 276.759 78.7881 276.949 78.6526C277.112 78.5442 277.274 78.4087 277.41 78.2732C277.518 78.1648 277.654 78.0293 277.735 77.8938C277.898 77.677 278.006 77.4331 278.06 77.1621C278.114 76.9453 278.114 76.7014 278.06 76.4575C278.006 76.2407 277.925 76.0239 277.816 75.8342C277.708 75.6445 277.572 75.4548 277.41 75.2922C277.139 74.9941 276.841 74.7231 276.516 74.4792C276.353 74.3708 276.217 74.2624 276.055 74.1811C274.998 73.5307 273.941 72.8803 272.857 72.257L268.386 69.6012C271.096 67.7584 273.86 65.9427 276.543 64.0728C277.708 63.2598 278.819 62.4468 279.93 61.5525C280.851 60.7937 281.773 59.9807 282.64 59.1677C283.047 58.7883 283.426 58.3276 283.805 57.9211C283.968 57.7314 284.131 57.5146 284.293 57.2978C284.429 57.1081 284.564 56.9183 284.673 56.7015C285.025 55.9969 285.377 55.3194 285.648 54.5877C285.757 54.2896 285.811 53.9644 285.892 53.6663C285.919 53.5308 285.946 53.3682 285.946 53.2327C285.946 53.0972 285.973 52.9617 285.973 52.7991C286 52.6636 285.973 52.5281 285.973 52.3926ZM252.559 34.1001C254.077 32.5283 255.594 30.9565 257.139 29.4118C257.41 29.1408 257.735 28.8698 258.033 28.6259C258.142 28.5446 258.25 28.4362 258.359 28.3549C258.44 28.3007 258.521 28.2194 258.63 28.1652C258.684 28.1381 258.765 28.0839 258.846 28.0568L259.09 27.9755C259.172 27.9755 259.253 27.9484 259.334 27.9755C259.415 27.9755 259.524 28.0026 259.605 28.0568C259.686 28.111 259.795 28.1923 259.849 28.2736C259.903 28.3278 259.93 28.382 259.957 28.4362C259.985 28.4904 260.039 28.5717 260.066 28.6259C260.147 28.8156 260.201 29.0053 260.256 29.2221C260.337 29.5202 260.391 29.7912 260.418 30.0893C260.527 30.7939 260.635 31.5256 260.716 32.2302C260.825 33.1516 260.906 34.1001 260.987 35.0215L261.448 39.9537L255.92 38.6529L250.771 37.8128L249.524 37.7044H249.117C250.256 36.512 251.394 35.2925 252.559 34.1001ZM249.09 40.9564L249.117 40.9293L249.145 40.9022H249.253L249.443 40.9564L249.93 41.1461L250.608 41.4442C252.369 42.203 254.104 42.9347 255.865 43.6935C257.031 44.1813 258.196 44.6691 259.334 45.184L261.638 46.1596L261.854 46.2409C261.99 48.0566 262.125 49.8723 262.234 51.688C262.315 53.0972 262.342 54.5335 262.369 55.9427C262.369 56.1324 262.369 56.295 262.342 56.4847C262.342 56.5931 262.315 56.6745 262.315 56.7829C262.288 56.8913 262.288 56.9725 262.261 57.0809C262.234 57.1893 262.207 57.2707 262.153 57.352L261.99 57.5959L261.882 57.7043C261.827 57.7314 261.8 57.7585 261.746 57.7856C261.638 57.8398 261.529 57.894 261.421 57.894C261.258 57.9211 261.123 57.9211 260.96 57.894C260.879 57.894 260.798 57.8669 260.716 57.8398L260.472 57.7584C260.283 57.6771 260.12 57.5959 259.957 57.5146C259.768 57.4062 259.578 57.2707 259.415 57.1623C259.226 57.0268 259.036 56.8641 258.846 56.7015C258.657 56.5389 258.467 56.3492 258.277 56.1595C257.871 55.7259 257.491 55.2923 257.112 54.8587C256.434 54.0457 255.757 53.2598 255.161 52.3655C254.348 51.1731 253.535 49.9807 252.749 48.7612C252.288 48.0295 251.8 47.3249 251.421 46.539L249.659 43.0431L249.28 41.932L249.199 41.6068L249.145 41.2816V41.0377L249.09 40.9564ZM268.629 72.0131C269.117 72.3112 269.578 72.6093 270.066 72.9345C270.662 73.341 271.285 73.7204 271.881 74.154C272.315 74.4521 272.722 74.7773 273.101 75.1296C273.291 75.2922 273.453 75.4548 273.616 75.6174C273.751 75.7529 273.86 75.9155 273.968 76.0781V76.1865C273.968 76.2136 273.941 76.2136 273.941 76.2407C273.914 76.2678 273.914 76.2678 273.887 76.2678C273.86 76.2678 273.833 76.2949 273.806 76.2949C273.751 76.2949 273.724 76.322 273.67 76.322C271.339 76.4846 269.009 76.6472 266.705 76.8369L257.627 77.5415L257.356 77.5686L257.491 77.4331L258.06 76.9182C259.226 76.051 260.364 75.1025 261.583 74.2895L266.732 70.7936L268.629 72.0131ZM275.621 54.1541C275.567 54.3438 275.486 54.5064 275.35 54.6419C275.188 54.8316 275.025 54.9942 274.862 55.1568C274.483 55.5091 274.104 55.8614 273.697 56.1595C272.261 57.1894 270.825 58.2192 269.361 59.2219C268.358 59.8994 267.329 60.5498 266.299 61.2002L260.337 65.0213L257.817 63.5579L247.004 57.3791C244.565 55.9156 242.099 54.4793 239.687 53.0159C239.226 52.7449 238.792 52.4197 238.359 52.0945L237.952 51.7693C237.898 51.7422 237.871 51.7151 237.817 51.6609C237.735 51.5796 237.627 51.4983 237.546 51.3899C237.437 51.2815 237.356 51.146 237.302 50.9834L237.221 50.7395C237.221 50.6582 237.193 50.5769 237.221 50.4685C237.248 50.2788 237.329 50.0891 237.437 49.8994C237.654 49.4929 237.952 49.1406 238.277 48.8154C239.66 47.3791 241.096 45.9699 242.478 44.5336L246.272 40.6854L246.462 41.3087L246.922 42.3927L246.949 42.4469C247.952 44.1813 248.901 45.9428 249.958 47.6501C251.177 49.6013 252.478 51.4983 253.779 53.3953C254.402 54.2896 255.025 55.1568 255.703 55.9969C256.272 56.7286 256.895 57.4333 257.546 58.1108C258.115 58.707 258.765 59.2219 259.388 59.7639C259.714 60.0078 260.066 60.2246 260.418 60.4414C260.743 60.6311 261.096 60.7937 261.448 60.9021C261.773 61.0105 262.125 61.0647 262.451 61.1189C262.857 61.146 263.291 61.1189 263.67 61.0105C263.779 60.9834 263.887 60.9292 264.022 60.9021C264.131 60.8479 264.239 60.8208 264.321 60.7666C264.402 60.7124 264.51 60.6582 264.592 60.604C264.754 60.4956 264.917 60.3601 265.052 60.2246C265.161 60.1162 265.296 59.9807 265.377 59.8452C265.513 59.6826 265.621 59.4929 265.73 59.3032C266.001 58.8425 266.245 58.3276 266.407 57.8127C266.597 57.2436 266.787 56.6745 266.922 56.0783C267.112 55.2923 267.329 54.4793 267.41 53.6663L267.898 48.9509C269.009 49.4658 270.147 49.9536 271.258 50.5227C272.315 51.0918 273.345 51.7151 274.375 52.3384C274.483 52.4197 274.619 52.501 274.727 52.5823C274.89 52.7178 275.025 52.8533 275.161 52.9888C275.296 53.1514 275.431 53.314 275.513 53.5037C275.54 53.585 275.567 53.6934 275.594 53.8018V53.9644C275.648 54.0457 275.648 54.0999 275.621 54.1541Z" fill="#1F3E72" fill-opacity="0.2"/>
</g>
<defs>
<clipPath id="clip0_142_2">
<rect width="271" height="67.6959" fill="white" transform="translate(15 17)"/>
</clipPath>
</defs>
</svg>
