<svg width="300" height="102" viewBox="0 0 300 102" fill="none" xmlns="http://www.w3.org/2000/svg">
<rect width="300" height="102" fill="white"/>
<g clip-path="url(#clip0_142_9)">
<path d="M83.5169 68.5109V64.4514V38.2291V34.1696H74.7395V38.2291V64.4514V68.5109H83.5169Z" fill="#1F3E72" fill-opacity="0.3"/>
<path d="M160.209 51.3952C160.209 56.9907 158.673 61.3794 155.711 64.5612C152.639 67.743 148.469 69.279 143.093 69.279C137.717 69.279 133.438 67.743 130.476 64.5612C127.404 61.3794 125.977 56.9907 125.977 51.3952C125.977 45.6899 127.513 41.3012 130.476 38.1194C133.438 34.9377 137.717 33.4016 143.203 33.4016C148.689 33.4016 152.858 34.9377 155.93 38.1194C158.783 41.1915 160.209 45.6899 160.209 51.3952ZM151.87 51.3952C151.87 47.7745 151.102 44.9219 149.566 42.8373C148.03 40.7526 145.836 39.6555 143.093 39.6555C140.24 39.6555 138.156 40.7526 136.62 42.8373C135.084 44.9219 134.316 47.7745 134.316 51.3952C134.316 55.0158 135.084 57.7587 136.62 59.9531C138.156 62.0377 140.35 63.1349 143.093 63.1349C145.836 63.1349 148.03 62.0377 149.566 59.9531C151.102 57.7587 151.87 54.9061 151.87 51.3952Z" fill="#1F3E72" fill-opacity="0.3"/>
<path d="M179.19 58.8558L187.309 34.1696H196.087L184.347 68.5109H174.143L162.404 34.1696H171.181L179.19 58.8558Z" fill="#1F3E72" fill-opacity="0.2"/>
<path d="M43.2507 67.9624V61.16C47.0908 62.3668 50.492 62.9154 53.4544 62.9154C57.6236 62.9154 59.5985 61.8183 59.5985 59.6239C59.5985 58.8559 59.2694 58.0879 58.7208 57.5393C58.0625 56.9907 56.5264 56.113 54.0029 55.1255C49.5045 53.2604 46.5422 51.6146 45.1159 50.298C43.3604 48.5425 42.4827 46.3482 42.4827 43.715C42.4827 40.3138 43.7993 37.6806 46.4325 35.9251C48.956 34.1696 52.3572 33.2919 56.5264 33.2919C58.8305 33.2919 62.5609 33.6211 66.7301 34.4988V40.5332C63.4386 39.6555 60.2568 39.1069 57.5139 39.1069C53.6738 39.1069 51.6989 40.2041 51.6989 42.2887C51.6989 43.0567 52.1378 43.715 52.9058 44.2636C53.5641 44.7024 55.3195 45.5802 58.2819 46.8968C62.4511 48.762 65.3038 50.4077 66.7301 51.7243C68.3759 53.3701 69.2536 55.4547 69.2536 58.0879C69.2536 61.8183 67.6078 64.6709 64.426 66.6458C61.7928 68.2916 58.3916 69.0596 54.2224 69.0596C50.3823 69.1693 46.8713 68.8401 43.2507 67.9624V67.9624Z" fill="#1F3E72" fill-opacity="0.3"/>
<path d="M90.0999 68.5109V34.1696H101.072L113.25 57.1004V34.1696H120.053V68.5109H109.739L96.9023 45.1413V68.5109H90.0999Z" fill="#1F3E72" fill-opacity="0.3"/>
<path d="M209.911 43.8247L201.901 68.5109H193.124L204.864 34.1696H215.067L226.807 68.5109H218.03L209.911 43.8247Z" fill="#1F3E72" fill-opacity="0.2"/>
<path d="M256.76 61.8182C254.127 62.5863 250.067 63.0251 248.531 63.0251C244.91 63.0251 242.058 61.928 239.973 59.8433C237.779 57.7587 236.791 54.9061 236.791 51.3952C236.791 47.8842 237.889 45.1413 239.973 42.947C242.058 40.7526 244.801 39.6555 248.312 39.6555C249.738 39.6555 253.029 39.8749 256.87 41.1915V34.9377C255.992 34.6085 254.785 34.2794 253.468 34.0599C251.823 33.7308 249.957 33.5113 247.873 33.5113C241.948 33.5113 237.23 35.1571 233.719 38.4486C230.208 41.7401 228.453 46.1288 228.453 51.7243C228.453 57.2101 230.208 61.5988 233.719 64.6709C237.23 67.8527 241.948 69.3887 248.092 69.3887C249.957 69.3887 251.713 69.279 253.359 68.9498C254.675 68.7304 255.882 68.511 257.089 68.1818V61.8182H256.76Z" fill="#1F3E72" fill-opacity="0.2"/>
</g>
<defs>
<clipPath id="clip0_142_9">
<rect width="216" height="36.72" fill="white" transform="translate(42 33)"/>
</clipPath>
</defs>
</svg>
