<svg width="300" height="102" viewBox="0 0 300 102" fill="none" xmlns="http://www.w3.org/2000/svg">
<rect width="300" height="102" fill="white"/>
<g clip-path="url(#clip0_142_39)">
<path d="M54.723 42.8929C57.0512 34.3815 66.747 32.356 75.6739 32.1057C83.0124 31.9001 91.1948 32.8704 91.1948 32.8704L87.3502 46.9268C87.3502 46.9268 79.1677 45.9564 71.8293 46.1622C62.9024 46.4124 53.2064 48.4381 50.8784 56.9493L54.723 42.8929Z" fill="#1F3E72" fill-opacity="0.2"/>
<path d="M178.252 27.9276C166.5 27.9276 163.489 39.3016 161.804 45.4618L149.25 91.351H156.574L167.704 50.6615H175.311L170.247 69.1763H177.571L183.645 46.9723H168.714C169.479 44.1736 170.295 41.1922 170.96 38.7612C172.188 34.2714 174.194 31.0112 177.111 31.1207C180.335 31.2419 178.694 33.3589 178.253 34.973C177.642 37.2063 179.291 39.4518 182.18 39.4518C188.456 39.4518 190.004 27.9276 178.252 27.9276ZM136.705 35.9574L127.619 69.1765H135.254L138.619 56.8751H145.251C152.57 56.8751 157.426 52.8361 158.74 47.2217C159.966 41.9794 156.904 35.9574 148.703 35.9574H136.705ZM143.271 39.8663H146.207C149.281 39.8663 151.719 42.3267 151.13 46.6085C150.585 50.5776 146.275 52.9569 142.517 52.9569H139.691L143.271 39.8663ZM215.677 46.2999C209.256 46.2999 204.625 51.823 203.514 57.3425C202.446 62.6466 205.488 69.6952 213.862 69.6952C219.814 69.6952 222.807 67.0744 222.807 67.0744L221.437 63.6927C221.437 63.6927 218.935 65.7294 215.449 65.7294C211.962 65.7294 209.775 62.9773 210.259 58.5914H224.496C225.514 56.0088 226.071 46.2999 215.677 46.2999ZM244.056 46.5985C239.281 46.5985 236.466 51.5296 236.466 51.5296L237.712 46.9727H230.388L224.315 69.1765H231.639C231.639 69.1765 233.403 62.6892 234.3 59.4505C235.686 54.3877 238.512 51.2177 239.871 51.0879C241.441 50.9379 241.291 54.7214 244.353 54.7214C248.998 54.7214 249.999 46.5985 244.056 46.5985ZM186.404 46.9727L185.395 50.6621H194.679L180.084 69.1765H200.694L201.703 65.4869H191.23L205.824 46.9727H186.404ZM215.649 49.9662C219.631 49.9662 218.725 55.2243 218.725 55.2243L210.748 55.2057C210.748 55.2057 212.071 49.9662 215.649 49.9662ZM110.432 69.2282C84.1675 67.5904 53.6457 54.0428 54.723 42.8929L51.0994 56.1417C50 67.5178 78.3134 81.0238 106.588 83.2845L110.432 69.2282Z" fill="#1F3E72" fill-opacity="0.2"/>
<path d="M119.977 50.9606C117.649 59.4722 107.953 61.4977 99.0264 61.7479C91.6879 61.9537 83.5056 60.9831 83.5056 60.9831L87.3502 46.9268C87.3502 46.9268 95.5323 47.8971 102.871 47.6915C111.798 47.4411 121.494 45.4156 123.822 36.9042L119.977 50.9606Z" fill="#1F3E72" fill-opacity="0.2"/>
<path d="M64.2678 24.6254C90.5326 26.2632 121.054 39.8109 119.977 50.9608L123.601 37.7118C124.7 26.3358 96.3868 12.8297 68.1126 10.569L64.2678 24.6254Z" fill="#1F3E72" fill-opacity="0.2"/>
</g>
<defs>
<clipPath id="clip0_142_39">
<rect width="200" height="81.92" fill="white" transform="translate(50 10)"/>
</clipPath>
</defs>
</svg>
